<svg width="187" height="52" viewBox="0 0 187 52" fill="none" xmlns="http://www.w3.org/2000/svg">
<path d="M76.567 35.883C77.513 35.883 78.287 35.8113 78.889 35.668C79.5197 35.496 80.0213 35.281 80.394 35.023C80.7667 34.7363 81.0247 34.4067 81.168 34.034C81.3113 33.6613 81.383 33.2457 81.383 32.787C81.383 31.8123 80.9243 31.0097 80.007 30.379C79.0897 29.7197 77.513 29.0173 75.277 28.272C74.3023 27.928 73.3277 27.541 72.353 27.111C71.3783 26.6523 70.504 26.0933 69.73 25.434C68.956 24.746 68.3253 23.929 67.838 22.983C67.3507 22.0083 67.107 20.833 67.107 19.457C67.107 18.081 67.365 16.8483 67.881 15.759C68.397 14.641 69.128 13.695 70.074 12.921C71.02 12.147 72.1667 11.5593 73.514 11.158C74.8613 10.728 76.3807 10.513 78.072 10.513C80.0787 10.513 81.813 10.728 83.275 11.158C84.737 11.588 85.941 12.061 86.887 12.577L84.952 17.866C84.1207 17.436 83.189 17.0633 82.157 16.748C81.1537 16.404 79.9353 16.232 78.502 16.232C76.8967 16.232 75.7357 16.4613 75.019 16.92C74.331 17.35 73.987 18.0237 73.987 18.941C73.987 19.4857 74.116 19.9443 74.374 20.317C74.632 20.6897 74.9903 21.0337 75.449 21.349C75.9363 21.6357 76.481 21.908 77.083 22.166C77.7137 22.3953 78.4017 22.639 79.147 22.897C80.695 23.4703 82.0423 24.0437 83.189 24.617C84.3357 25.1617 85.2817 25.8067 86.027 26.552C86.801 27.2973 87.3743 28.1717 87.747 29.175C88.1197 30.1783 88.306 31.3967 88.306 32.83C88.306 35.6107 87.3313 37.775 85.382 39.323C83.4327 40.8423 80.4943 41.602 76.567 41.602C75.2483 41.602 74.0587 41.516 72.998 41.344C71.9373 41.2007 70.9913 41.0143 70.16 40.785C69.3573 40.5557 68.655 40.312 68.053 40.054C67.4797 39.796 66.9923 39.5523 66.591 39.323L68.483 33.991C69.3717 34.4783 70.461 34.9227 71.751 35.324C73.0697 35.6967 74.675 35.883 76.567 35.883ZM113.333 29.648C113.333 31.4253 113.075 33.0593 112.559 34.55C112.043 36.012 111.298 37.2733 110.323 38.334C109.349 39.366 108.173 40.1687 106.797 40.742C105.45 41.3153 103.931 41.602 102.239 41.602C100.577 41.602 99.0573 41.3153 97.6813 40.742C96.334 40.1687 95.173 39.366 94.1983 38.334C93.2237 37.2733 92.464 36.012 91.9193 34.55C91.3747 33.0593 91.1023 31.4253 91.1023 29.648C91.1023 27.8707 91.3747 26.251 91.9193 24.789C92.4927 23.327 93.2667 22.08 94.2413 21.048C95.2447 20.016 96.42 19.2133 97.7673 18.64C99.1433 18.0667 100.634 17.78 102.239 17.78C103.873 17.78 105.364 18.0667 106.711 18.64C108.087 19.2133 109.263 20.016 110.237 21.048C111.212 22.08 111.972 23.327 112.516 24.789C113.061 26.251 113.333 27.8707 113.333 29.648ZM106.797 29.648C106.797 27.67 106.396 26.122 105.593 25.004C104.819 23.8573 103.701 23.284 102.239 23.284C100.777 23.284 99.645 23.8573 98.8423 25.004C98.0397 26.122 97.6383 27.67 97.6383 29.648C97.6383 31.626 98.0397 33.2027 98.8423 34.378C99.645 35.5247 100.777 36.098 102.239 36.098C103.701 36.098 104.819 35.5247 105.593 34.378C106.396 33.2027 106.797 31.626 106.797 29.648ZM126.466 41.43C124.603 41.4013 123.084 41.2007 121.908 40.828C120.762 40.4553 119.844 39.9393 119.156 39.28C118.497 38.592 118.038 37.775 117.78 36.829C117.551 35.8543 117.436 34.765 117.436 33.561V8.664L123.843 7.632V32.271C123.843 32.8443 123.886 33.3603 123.972 33.819C124.058 34.2777 124.216 34.6647 124.445 34.98C124.703 35.2953 125.062 35.5533 125.52 35.754C125.979 35.9547 126.595 36.0837 127.369 36.141L126.466 41.43ZM149.489 40.226C148.4 40.5413 146.995 40.828 145.275 41.086C143.555 41.3727 141.749 41.516 139.857 41.516C137.936 41.516 136.331 41.258 135.041 40.742C133.78 40.226 132.776 39.5093 132.031 38.592C131.286 37.646 130.755 36.528 130.44 35.238C130.125 33.948 129.967 32.529 129.967 30.981V18.382H136.374V30.207C136.374 32.271 136.646 33.7617 137.191 34.679C137.736 35.5963 138.753 36.055 140.244 36.055C140.703 36.055 141.19 36.0407 141.706 36.012C142.222 35.9547 142.681 35.8973 143.082 35.84V18.382H149.489V40.226ZM154.643 19.156C155.733 18.8407 157.137 18.554 158.857 18.296C160.577 18.0093 162.383 17.866 164.275 17.866C166.196 17.866 167.787 18.124 169.048 18.64C170.338 19.1273 171.356 19.8297 172.101 20.747C172.847 21.6643 173.377 22.7537 173.692 24.015C174.008 25.2763 174.165 26.681 174.165 28.229V41H167.758V29.003C167.758 26.939 167.486 25.477 166.941 24.617C166.397 23.757 165.379 23.327 163.888 23.327C163.43 23.327 162.942 23.3557 162.426 23.413C161.91 23.4417 161.452 23.4847 161.05 23.542V41H154.643V19.156ZM185.383 37.603C185.383 38.893 184.967 39.882 184.136 40.57C183.333 41.2293 182.416 41.559 181.384 41.559C180.352 41.559 179.42 41.2293 178.589 40.57C177.786 39.882 177.385 38.893 177.385 37.603C177.385 36.313 177.786 35.3383 178.589 34.679C179.42 33.991 180.352 33.647 181.384 33.647C182.416 33.647 183.333 33.991 184.136 34.679C184.967 35.3383 185.383 36.313 185.383 37.603Z" fill="white"/>
<path d="M38.7764 35.2156V30.0164C38.7764 28.0521 37.1799 26.4556 35.2156 26.4556H30.0164C29.005 26.4556 28.0855 26.8819 27.4419 27.5589C22.435 33.1426 17.0686 33.1342 11.4265 27.6592C11.3596 27.584 11.2927 27.5088 11.2175 27.4419C5.63382 22.435 5.64218 17.077 11.1172 11.4265C11.1924 11.3596 11.2676 11.2844 11.3429 11.2175C16.4501 5.5168 21.9335 5.64218 27.7094 11.4683C28.3279 12.0032 29.1387 12.3208 30.0164 12.3208H35.2156C37.1799 12.3208 38.7764 10.7243 38.7764 8.76001V3.56084C38.7764 1.59653 37.1799 0 35.2156 0H30.0164C29.1304 0 28.3279 0.317634 27.7094 0.852596C21.9335 6.67867 16.4501 6.80405 11.3429 1.10336C10.6825 0.426298 9.77142 0 8.76001 0H3.56084C1.59653 0 0 1.59653 0 3.56084V8.76001C0 9.72127 0.392863 10.7076 1.20367 11.4265C6.65359 17.0436 6.68703 22.3765 1.19531 27.3583C0.443016 28.027 0 28.9883 0 30.0164V35.2156C0 37.1799 1.59653 38.7764 3.56084 38.7764H8.76001C9.64604 38.7764 10.4485 38.4588 11.067 37.9238C16.843 32.0977 22.3263 31.9724 27.4335 37.673C28.0855 38.3501 28.9966 38.7764 30.008 38.7764H35.2072C37.1799 38.7764 38.7764 37.1799 38.7764 35.2156Z" fill="white"/>
<path d="M13.232 16.7844V21.9836C13.232 23.9479 14.8285 25.5445 16.7928 25.5445H21.992C23.0034 25.5445 23.9228 25.1182 24.5665 24.4411C29.5734 18.8574 34.9397 18.8658 40.5819 24.3408C40.6488 24.416 40.7156 24.4912 40.7909 24.5581C46.3745 29.565 46.3662 34.923 40.8912 40.5735C40.8159 40.6404 40.7407 40.7156 40.6655 40.7825C35.5583 46.4832 30.0749 46.3578 24.299 40.5318C23.6804 39.9968 22.8696 39.6792 21.992 39.6792H16.7928C14.8285 39.6792 13.232 41.2757 13.232 43.24V48.4392C13.232 50.4035 14.8285 52 16.7928 52H21.992C22.878 52 23.6804 51.6824 24.299 51.1474C30.0749 45.3213 35.5583 45.196 40.6655 50.8966C41.3175 51.5737 42.2286 52 43.24 52H48.4392C50.4035 52 52 50.4035 52 48.4392V43.24C52 42.2787 51.6071 41.2924 50.7963 40.5735C45.3464 34.9564 45.313 29.6235 50.8047 24.6417C51.557 23.973 52 23.0117 52 21.9836V16.7844C52 14.8201 50.4035 13.2236 48.4392 13.2236H43.24C42.354 13.2236 41.5515 13.5412 40.933 14.0762C35.1571 19.9023 29.6737 20.0277 24.5665 14.327C23.9145 13.6499 23.0034 13.2236 21.992 13.2236H16.7928C14.8201 13.232 13.232 14.8201 13.232 16.7844Z" fill="white"/>
</svg>
