<svg width="25" height="25" viewBox="0 0 25 25" fill="none" xmlns="http://www.w3.org/2000/svg">
<path d="M23.1539 6.65085L16.7413 6.54077C16.4717 6.53617 16.2494 6.75101 16.2447 7.02062C16.2401 7.29024 16.4549 7.51258 16.7245 7.51724L21.8152 7.6046L15.6412 13.5702C15.1291 14.065 14.3098 14.0509 13.815 13.5388L7.84945 7.36488L12.7641 7.44922C13.0337 7.45381 13.256 7.23897 13.2607 6.96936C13.2654 6.69975 13.0505 6.4774 12.7809 6.47274L6.54424 6.36571C6.27466 6.36111 6.05232 6.57595 6.04766 6.84553L5.8588 17.8525C5.85417 18.1221 6.06901 18.3445 6.33866 18.3491L22.9483 18.6342C23.0777 18.6365 23.2028 18.5872 23.296 18.4972C23.3891 18.4072 23.4426 18.2839 23.4449 18.1544L23.6338 7.14744C23.636 7.01795 23.5867 6.89289 23.4967 6.79977C23.4067 6.70668 23.2834 6.65311 23.1539 6.65085ZM7.0064 7.89763L11.3275 12.3696L6.85544 16.6907L7.0064 7.89763ZM21.7864 17.6376L7.53399 17.3929L12.006 13.0719L13.1128 14.2173C13.9818 15.1167 15.4205 15.1414 16.3199 14.2724L17.4653 13.1656L21.7864 17.6376ZM22.4887 16.959L18.1676 12.487L22.6396 8.16602L22.4887 16.959Z" fill="#6D1FEE"/>
</svg>
