<svg width="25" height="25" viewBox="0 0 25 25" fill="none" xmlns="http://www.w3.org/2000/svg">
<g clip-path="url(#clip0_102_24)">
<path d="M22.5586 1.95312H14.4531C13.1069 1.95312 12.0115 3.04832 12.0115 4.39453V8.88672C12.0115 10.2329 13.1069 11.3283 14.4531 11.3283H18.75V12.7499C18.75 12.9473 18.8688 13.1252 19.051 13.201C19.1115 13.2259 19.1752 13.2381 19.2381 13.2381C19.3649 13.2381 19.4895 13.1889 19.5829 13.0959L21.3572 11.3283H22.5586C23.9048 11.3283 25 10.2329 25 8.88672V4.39453C25 3.04832 23.9048 1.95312 22.5586 1.95312ZM24.0234 8.88672C24.0234 9.69448 23.3664 10.3518 22.5586 10.3518H21.1554C21.0262 10.3518 20.9023 10.4029 20.8107 10.494L19.7266 11.5742V10.84C19.7266 10.5703 19.508 10.3518 19.2383 10.3518H14.4531C13.6454 10.3518 12.9883 9.69448 12.9883 8.88672V4.39453C12.9883 3.58677 13.6454 2.92969 14.4531 2.92969H22.5586C23.3664 2.92969 24.0234 3.58677 24.0234 4.39453V8.88672Z" fill="#6D1FEE"/>
<path d="M22.0219 15.4932C20.6362 14.1073 18.3813 14.1073 16.9956 15.4932L15.6916 16.797C15.1861 17.3027 14.3913 17.3381 13.8426 16.8804C11.7725 15.1529 9.84708 13.2274 8.1196 11.1574C7.66165 10.6087 7.6975 9.81367 8.20295 9.30841L9.507 8.00436C10.8927 6.61868 10.8927 4.36381 9.507 2.97813L7.56971 1.04084C6.89852 0.369643 6.00588 0 5.05659 0C4.10731 0 3.21486 0.369643 2.54348 1.04084C1.0958 2.4887 0.203357 4.40959 0.0307419 6.44988C-0.141682 8.48997 0.415263 10.5335 1.59934 12.204C4.68123 16.5517 8.44824 20.3188 12.796 23.4006C14.2674 24.4436 16.0278 25.0001 17.8207 24.9999C18.0634 24.9999 18.3069 24.9898 18.5501 24.9692C20.5904 24.7966 22.5113 23.9044 23.959 22.4565C24.6303 21.7853 25 20.8927 25 19.9434C25 18.9941 24.6303 18.1017 23.959 17.4303L22.0219 15.4932ZM13.3608 22.6039C9.10322 19.586 5.41403 15.897 2.39604 11.6392C0.216136 8.56379 0.568613 4.397 3.23413 1.73149C3.72088 1.24473 4.36823 0.97656 5.05659 0.97656C5.74515 0.97656 6.39231 1.24473 6.87925 1.73149L8.81635 3.66878C9.3033 4.15553 9.57128 4.80288 9.57128 5.49125C9.57128 6.17961 9.3033 6.82696 8.81635 7.31371L8.73586 7.39439L5.55346 4.21199C5.36291 4.02145 5.05373 4.02145 4.863 4.21199C4.67227 4.40272 4.67227 4.7119 4.863 4.90264L8.04521 8.08485L7.5123 8.61776C6.64732 9.48294 6.5859 10.8438 7.36982 11.7832C9.13469 13.8981 11.1019 15.8653 13.2168 17.6302C14.1562 18.4139 15.517 18.3529 16.3822 17.4877L16.9151 16.9548L22.4432 22.4828C19.796 24.476 16.1346 24.57 13.3608 22.6039ZM23.2685 21.7659C23.241 21.7933 23.2132 21.8202 23.1855 21.8471C23.1762 21.836 23.1666 21.8252 23.1562 21.8147L17.6056 16.2643L17.6863 16.1836C18.173 15.6969 18.8204 15.4287 19.5087 15.4287C20.1971 15.4287 20.8444 15.6969 21.3312 16.1836L23.2685 18.1209C23.7554 18.6077 24.0234 19.255 24.0234 19.9434C24.0234 20.6319 23.7554 21.2791 23.2685 21.7659Z" fill="#6D1FEE"/>
<path d="M3.87231 2.73343C3.74395 2.73343 3.61806 2.78531 3.52728 2.87648C3.43649 2.96727 3.38403 3.09334 3.38403 3.22171C3.38403 3.35007 3.43629 3.47615 3.52728 3.56694C3.61806 3.65773 3.74395 3.70999 3.87231 3.70999C4.00087 3.70999 4.12675 3.65773 4.21754 3.56694C4.30853 3.47615 4.3606 3.35007 4.3606 3.22171C4.3606 3.09334 4.30853 2.96727 4.21754 2.87648C4.12675 2.78512 4.00087 2.73343 3.87231 2.73343Z" fill="#6D1FEE"/>
<path d="M10.6596 17.9645C9.6594 17.0746 8.68857 16.1278 7.77437 15.1504C7.59013 14.9534 7.28114 14.9431 7.0843 15.1273C6.88727 15.3114 6.87697 15.6206 7.06122 15.8174C7.99582 16.8167 8.98802 17.7845 10.0104 18.6941C10.1034 18.7769 10.2194 18.8177 10.3348 18.8177C10.4695 18.8177 10.6033 18.7624 10.6999 18.6538C10.8792 18.4524 10.861 18.1438 10.6596 17.9645Z" fill="#6D1FEE"/>
<path d="M6.50444 13.7327C6.3282 13.5286 6.0213 13.5074 5.81703 13.6839C5.61294 13.8601 5.59177 14.1699 5.76801 14.3742L5.77392 14.381C5.87024 14.492 6.0049 14.5487 6.1409 14.5487C6.25419 14.5487 6.36844 14.5092 6.46133 14.4289C6.66523 14.2523 6.68583 13.9421 6.5094 13.7384L6.50444 13.7327Z" fill="#6D1FEE"/>
<path d="M20.874 6.15234C20.7457 6.15234 20.6196 6.2046 20.5288 6.29539C20.438 6.38637 20.3857 6.51226 20.3857 6.64062C20.3857 6.76918 20.438 6.89506 20.5288 6.98585C20.6196 7.07664 20.7457 7.1289 20.874 7.1289C21.0024 7.1289 21.1285 7.07664 21.2193 6.98585C21.31 6.89506 21.3623 6.76918 21.3623 6.64062C21.3623 6.51226 21.31 6.38637 21.2193 6.29539C21.1285 6.2046 21.0024 6.15234 20.874 6.15234Z" fill="#6D1FEE"/>
<path d="M18.5087 6.15234C18.3804 6.15234 18.2543 6.2046 18.1635 6.29539C18.0727 6.38637 18.0204 6.51226 18.0204 6.64062C18.0204 6.76918 18.0727 6.89506 18.1635 6.98585C18.2549 7.07664 18.3804 7.1289 18.5087 7.1289C18.6371 7.1289 18.7632 7.07664 18.854 6.98585C18.9453 6.89506 18.997 6.76918 18.997 6.64062C18.997 6.51226 18.9453 6.38637 18.854 6.29539C18.7632 6.2046 18.6377 6.15234 18.5087 6.15234Z" fill="#6D1FEE"/>
<path d="M16.144 6.15234C16.015 6.15234 15.8895 6.2046 15.7988 6.29539C15.7074 6.38637 15.6557 6.51226 15.6557 6.64062C15.6557 6.76918 15.7074 6.89506 15.7988 6.98585C15.8895 7.07664 16.0156 7.1289 16.144 7.1289C16.2723 7.1289 16.3984 7.07664 16.4892 6.98585C16.58 6.89506 16.6323 6.76918 16.6323 6.64062C16.6323 6.51226 16.58 6.38637 16.4892 6.29539C16.3984 6.2046 16.2723 6.15234 16.144 6.15234Z" fill="#6D1FEE"/>
</g>
<defs>
<clipPath id="clip0_102_24">
<rect width="25" height="25" fill="white"/>
</clipPath>
</defs>
</svg>
